<svg xmlns="http://www.w3.org/2000/svg" xmlns:xlink="http://www.w3.org/1999/xlink" viewBox="0 0 1910.91 1424.99"><defs><style>.cls-1{fill:none;}.cls-2{fill:#fff;}.cls-3{fill:#1a1b22;}.cls-4{fill:#15a34a;}.cls-5{clip-path:url(#clip-path);}</style><clipPath id="clip-path"><path class="cls-1" d="M1734,958.17,1575.37,1008l29,100.68L1287,1156.55V958.93H1152.15V780.87s61.92.84,116,.12l97.19-6.94s9.47,48.86,71.68,41.53c61.06-7.21,58.6-51.77,58.6-51.77l123.81,26s39.45-1.51,69.79,62.2Z"/></clipPath></defs><g id="Laag_2" data-name="Laag 2"><g id="Graphics"><path class="cls-2" d="M1022,587.05V785.6a31.68,31.68,0,0,1-31.68,31.68H614.83a31.68,31.68,0,0,1-31.68-31.68V587.05Z"/><path class="cls-3" d="M990.36,819.78H614.83a34.21,34.21,0,0,1-34.18-34.18V587.05a2.49,2.49,0,0,1,2.5-2.5H1022a2.49,2.49,0,0,1,2.5,2.5V785.6A34.21,34.21,0,0,1,990.36,819.78ZM585.65,589.55V785.6a29.21,29.21,0,0,0,29.18,29.18H990.36a29.21,29.21,0,0,0,29.18-29.18V589.55Z"/><path class="cls-2" d="M1022,537v50H583.15V537a28.19,28.19,0,0,1,28.18-28.19H993.85A28.2,28.2,0,0,1,1022,537Z"/><path class="cls-3" d="M1022,589.55H583.15a2.5,2.5,0,0,1-2.5-2.5V537a30.72,30.72,0,0,1,30.68-30.69H993.85A30.72,30.72,0,0,1,1024.54,537v50A2.5,2.5,0,0,1,1022,589.55Zm-436.39-5h433.89V537a25.71,25.71,0,0,0-25.69-25.69H611.33A25.71,25.71,0,0,0,585.65,537Z"/><circle class="cls-2" cx="624.33" cy="549.63" r="13.68"/><path class="cls-3" d="M624.33,565.8a16.18,16.18,0,1,1,16.17-16.17A16.2,16.2,0,0,1,624.33,565.8Zm0-27.35a11.18,11.18,0,1,0,11.17,11.18A11.19,11.19,0,0,0,624.33,538.45Z"/><circle class="cls-2" cx="673.25" cy="549.63" r="13.68"/><path class="cls-3" d="M673.25,565.8a16.18,16.18,0,1,1,16.18-16.17A16.2,16.2,0,0,1,673.25,565.8Zm0-27.35a11.18,11.18,0,1,0,11.18,11.18A11.19,11.19,0,0,0,673.25,538.45Z"/><circle class="cls-2" cx="722.17" cy="549.63" r="13.68"/><path class="cls-3" d="M722.17,565.8a16.18,16.18,0,1,1,16.18-16.17A16.19,16.19,0,0,1,722.17,565.8Zm0-27.35a11.18,11.18,0,1,0,11.18,11.18A11.18,11.18,0,0,0,722.17,538.45Z"/><path class="cls-3" d="M708.5,792.5a92.65,92.65,0,1,1,92.64-92.65A92.75,92.75,0,0,1,708.5,792.5Zm0-180.29a87.65,87.65,0,1,0,87.64,87.64A87.75,87.75,0,0,0,708.5,612.21Z"/><path class="cls-3" d="M708.5,749.25a49.4,49.4,0,1,1,49.39-49.4A49.45,49.45,0,0,1,708.5,749.25Zm0-93.79a44.4,44.4,0,1,0,44.39,44.39A44.44,44.44,0,0,0,708.5,655.46Z"/><path class="cls-3" d="M708.5,720a17.84,17.84,0,1,1,17.83-17.84A17.86,17.86,0,0,1,708.5,720Zm0-30.67a12.84,12.84,0,1,0,12.83,12.83A12.85,12.85,0,0,0,708.5,689.33Z"/><path class="cls-3" d="M747.63,676.52a2.5,2.5,0,0,1-1.76-4.28l31.07-30.7a2.5,2.5,0,1,1,3.52,3.55L749.39,675.8A2.52,2.52,0,0,1,747.63,676.52Z"/><path class="cls-3" d="M708.5,655.46A2.49,2.49,0,0,1,706,653V609.71a2.5,2.5,0,0,1,5,0V653A2.5,2.5,0,0,1,708.5,655.46Z"/><circle class="cls-4" cx="795.46" cy="175.61" r="128.78"/><path class="cls-3" d="M795.46,354.08c-97.62,0-177-79.42-177-177S697.84,0,795.46,0s177,79.42,177,177S893.08,354.08,795.46,354.08ZM795.46,5c-94.86,0-172,77.18-172,172s77.18,172,172,172,172-77.18,172-172S890.33,5,795.46,5Z"/><path class="cls-2" d="M799.85,104.44l15.59,48a4.62,4.62,0,0,0,4.39,3.19h50.46A4.61,4.61,0,0,1,873,164l-40.83,29.66a4.62,4.62,0,0,0-1.67,5.16l15.59,48a4.61,4.61,0,0,1-7.09,5.15l-40.83-29.66a4.62,4.62,0,0,0-5.42,0l-40.82,29.66a4.61,4.61,0,0,1-7.1-5.15l15.6-48a4.63,4.63,0,0,0-1.68-5.16L717.93,164a4.61,4.61,0,0,1,2.71-8.34H771.1a4.6,4.6,0,0,0,4.38-3.19l15.6-48A4.61,4.61,0,0,1,799.85,104.44Z"/><path class="cls-3" d="M841.71,255.33a7.09,7.09,0,0,1-4.18-1.38L796.7,224.29a2.1,2.1,0,0,0-2.48,0L753.4,254A7.11,7.11,0,0,1,742.46,246l15.59-48a2.13,2.13,0,0,0-.77-2.37L716.46,166a7.11,7.11,0,0,1,4.18-12.86H771.1a2.12,2.12,0,0,0,2-1.46l15.59-48a7.12,7.12,0,0,1,13.53,0l15.59,48a2.11,2.11,0,0,0,2,1.46h50.46A7.11,7.11,0,0,1,874.47,166l-40.83,29.66a2.11,2.11,0,0,0-.76,2.37l15.59,48a7,7,0,0,1-2.58,7.95A7.12,7.12,0,0,1,841.71,255.33Zm-46.25-36.45a7.07,7.07,0,0,1,4.18,1.36l40.83,29.66a2.11,2.11,0,0,0,3.24-2.36l-15.59-48a7.1,7.1,0,0,1,2.59-8l40.82-29.66a2.11,2.11,0,0,0-1.24-3.82H819.83a7.1,7.1,0,0,1-6.77-4.91l-15.59-48h0a2.11,2.11,0,0,0-4,0l-15.59,48a7.08,7.08,0,0,1-6.76,4.91H720.64a2.11,2.11,0,0,0-1.24,3.82l40.82,29.66a7.08,7.08,0,0,1,2.58,8l-15.59,48a2.11,2.11,0,0,0,3.25,2.36l40.82-29.66A7.1,7.1,0,0,1,795.46,218.88Z"/><path class="cls-2" d="M1152.15,780.88V950l-93.85,0c-71.68,1.71-116-99-116-99l-116.9-286.9c-22.76,17.15-40.2-21.53-40.2-21.53l-12.51-22.75c-29-58.6,10.24-55.75,10.24-55.75-4.55-35.27,32.78-35,32.78-35,5.65-28.65,33.43-28.74,33.79-28.74L816.2,327.47a25.5,25.5,0,0,1,46.85-20.05l47.13,99.47,14.25-8.49c22.09-9.1,48.82,22,39.14,50.77l-14.33,71.59,130.21,260.12Z"/><path class="cls-3" d="M1483.72,665.55a2.5,2.5,0,0,1-.24-5c27.62-2.69,33.39-21.3,34.5-26.94,2.11-10.72-1.85-21.07-9.64-25.18-4.26-2.25-8.74-2.46-13.7-.64a2.5,2.5,0,0,1-1.72-4.7,21.08,21.08,0,0,1,17.76.92c9.72,5.14,14.74,17.7,12.21,30.56a35.78,35.78,0,0,1-11.65,20.08c-7,6.14-16.17,9.8-27.28,10.88Z"/><path class="cls-3" d="M1385.76,721.92a43.28,43.28,0,0,1-18.73-4.09c-17.6-8.33-25.51-27.43-25.41-41.64l-.21-56.29a2.5,2.5,0,0,1,2.5-2.51h0a2.49,2.49,0,0,1,2.5,2.49l.21,56.32c-.09,12.7,6.93,29.72,22.55,37.11,13.09,6.2,36.07,7.45,71.23-21.77a2.5,2.5,0,0,1,3.2,3.85C1419.23,715.64,1400.1,721.92,1385.76,721.92Z"/><path class="cls-3" d="M1495.31,766.32a12.05,12.05,0,0,1-8-3.24c-4-3.67-6.08-9.93-6.08-18.61V663.05a2.5,2.5,0,0,1,5,0v81.42c0,7,1.51,12.16,4.36,14.82a7,7,0,0,0,4.88,2,2.5,2.5,0,0,1,.44,5C1495.82,766.31,1495.61,766.32,1495.31,766.32Z"/><path class="cls-3" d="M1367.81,776.67c-.87,0-1.75,0-2.66-.13a2.5,2.5,0,0,1,.49-5,17.41,17.41,0,0,0,6.71-.51c8.33-2.51,8.75-12.34,8.75-12.44V720.23a2.5,2.5,0,0,1,5,0v38.46c0,.63-.58,13.61-12.3,17.15A20.8,20.8,0,0,1,1367.81,776.67Z"/><path class="cls-3" d="M1495.68,589.54c-3.17,6.23-3.26,11.55-1.9,15.91-8,2.94-14.86,10-18.53,14.44h-1.12c2.94-7.32,6.51-22.58-15.44-22-28.82.75-49.3-52.33-49.3-52.33-23.52,45.51-65.61,38.68-65.61,38.68l.13,35.65c-40.82-6.82-18.34-56.89-18.34-56.89s-70.16-12.14-33.75-46.27,147.53,6.45,147.53,6.45C1519.36,497,1505.71,569.83,1495.68,589.54Z"/><path class="cls-3" d="M1475.25,622.39h-1.12a2.51,2.51,0,0,1-2.32-3.44c1.44-3.57,3.42-10.17.57-14.27-2.1-3-6.7-4.46-13.62-4.29h-.68c-24.85,0-43.08-35.82-49-49.12-12.34,20.94-28.7,29.56-40.61,33.08a65.06,65.06,0,0,1-22.19,2.64l.12,32.88a2.45,2.45,0,0,1-.88,1.91,2.49,2.49,0,0,1-2,.56c-10.91-1.82-18.6-6.76-22.84-14.69-7.88-14.72-1.41-35.25,1.46-42.8-9.49-2-37.87-9.34-42.6-25.11-2.31-7.73,1.25-16.09,10.59-24.84,35.85-33.61,138.25,1.69,149.28,5.63,27.55-8.85,47-7,57.71,5.57,14.92,17.43,7.89,50.65.8,64.57-2.51,4.94-3.09,9.66-1.74,14a2.5,2.5,0,0,1-1.52,3.09c-7.63,2.79-14.21,9.77-17.46,13.68A2.52,2.52,0,0,1,1475.25,622.39ZM1338.79,505.56c-18.41,0-35,3.4-45.26,13-7.84,7.35-10.94,14-9.22,19.75,1.88,6.29,9.56,12.11,22.19,16.83a124.88,124.88,0,0,0,19.5,5.4,2.47,2.47,0,0,1,1.78,1.29,2.51,2.51,0,0,1,.08,2.19c-.12.26-11.25,25.51-2.79,41.29,3.1,5.78,8.59,9.65,16.33,11.52l-.12-32.58a2.5,2.5,0,0,1,2.9-2.48,57.56,57.56,0,0,0,23.1-2.27c17.08-5.12,30.5-16.93,39.89-35.09a2.51,2.51,0,0,1,2.36-1.35,2.48,2.48,0,0,1,2.19,1.6c.2.51,19.91,50.74,46.36,50.74h.54c8.73-.23,14.74,1.94,17.87,6.44a15.18,15.18,0,0,1,2.2,10.68,45,45,0,0,1,12.14-8.55c-1-5-.1-10.21,2.62-15.55h0c6.35-12.47,13.07-43.61-.14-59-9.41-11-27.31-12.28-53.19-3.82a2.46,2.46,0,0,1-1.63,0C1437.71,525.24,1383.08,505.56,1338.79,505.56Z"/><path class="cls-4" d="M1734,958.17,1575.37,1008l29,100.68L1287,1156.55V958.93H1152.15V780.87s61.92.84,116,.12l97.19-6.94s9.47,48.86,71.68,41.53c61.06-7.21,58.6-51.77,58.6-51.77l123.81,26s39.45-1.51,69.79,62.2Z"/><g class="cls-5"><path class="cls-2" d="M1794.9,1049.2h-.19c-113.58-10.5-194.87-50.44-241.63-118.71-38.66-56.46-45.84-122.11-45-167.24.86-48.85,11-84.9,11.09-85.25a2,2,0,1,1,3.85,1.09c-.11.36-10.11,36-10.94,84.35-.76,44.52,6.31,109.26,44.37,164.82,46,67.22,126.35,106.58,238.68,117a2,2,0,0,1-.18,4Z"/><path class="cls-2" d="M1102.58,1184a1.89,1.89,0,0,1-.83-.18,2,2,0,0,1-1-2.65c26.17-57.33,58.28-103,95.43-135.71,32.34-28.47,68.69-47.38,108-56.18,41-9.16,85.59-7.2,129.07,5.66a289.06,289.06,0,0,1,36.85,13.68c6.28-16.47,16.32-36.19,31.56-59.77,24-37.22,56.57-63.79,96.66-79,33.46-12.68,72.29-17.51,115.43-14.37,98.12,7.16,190.19,54.27,193.84,62.26a2.47,2.47,0,0,1-.21,2.55,2,2,0,0,1-3.6-1.1c-3-3.53-27.72-17.81-66.9-32.09-34.42-12.55-87.24-27.69-143.46-28.52-38.5-.56-73.22,5.78-103.07,18.84-35,15.31-63.66,40.07-85.33,73.6-14.17,21.92-24.62,41.74-31.28,59.26,18.62,8.72,35.38,19.1,48.55,30.25,21.72,18.39,14.2,33.09,10,38.56-10.49,13.52-37.57,19.63-55.47,6.94-9.67-6.85-25.14-26-8.08-73.66a286.56,286.56,0,0,0-36.59-13.6c-42.84-12.67-86.77-14.6-127.07-5.59-38.67,8.65-74.42,27.25-106.25,55.28-36.73,32.34-68.51,77.55-94.44,134.36A2,2,0,0,1,1102.58,1184Zm369.81-169.94a125.5,125.5,0,0,0-6.86,28.21c-2,18.75,2.67,32.76,13.61,40.51,16.17,11.46,40.57,6,50-6.13,7.47-9.63,4-21.68-9.38-33.05C1506.91,1032.73,1490.57,1022.6,1472.39,1014.07Zm431.83-96.16h0Z"/><path class="cls-2" d="M1117.31,890.77a212.58,212.58,0,0,1-38.23-3.72,2,2,0,0,1,.73-3.94c48,8.81,85.78,1.68,112.4-21.18,51.28-44,48.56-135.11,47.53-169.39-.32-10.59-.37-13.71.53-15.1a2,2,0,0,1,3.45,2c-.33,1.2-.16,6.91,0,12.95,1,34.8,3.81,127.26-48.92,172.54C1174.82,882.14,1148.84,890.77,1117.31,890.77Zm126.32-211.15Z"/></g><path class="cls-3" d="M1425.31,818.69c-20.63,0-36.66-5.09-47.73-15.17a44.73,44.73,0,0,1-14.68-29.39,2.5,2.5,0,0,1,5-.17A40.44,40.44,0,0,0,1381,799.89c11.51,10.43,29.15,15,52.45,13.54,22.81-1.42,39.48-8.14,49.56-20a43.13,43.13,0,0,0,10.15-29.41,2.5,2.5,0,0,1,5-.49,47.6,47.6,0,0,1-11.31,33.14c-11,12.91-28.84,20.22-53.06,21.72C1430.88,818.6,1428.05,818.69,1425.31,818.69Z"/><path class="cls-3" d="M1438.75,696.2s-18.74,40.87-55.15,39.73V721.71S1415.39,719.05,1438.75,696.2Z"/><path class="cls-3" d="M1385.05,738.46q-.77,0-1.53,0a2.49,2.49,0,0,1-2.42-2.5V721.71a2.5,2.5,0,0,1,2.29-2.49c.31,0,31.21-2.89,53.61-24.8a2.5,2.5,0,0,1,4,2.83,90,90,0,0,1-14.35,20.94C1414.49,731.47,1400.13,738.46,1385.05,738.46Zm1-14.52v9.51c20.32-.48,34.76-15,42.83-26A104.15,104.15,0,0,1,1386.1,723.94Z"/><path class="cls-3" d="M1487.89,646.66l-.28,0a2.49,2.49,0,0,1-2.2-2.76c.78-7,5.81-20.79,19.27-22.31a2.5,2.5,0,0,1,.56,5c-5.3.6-9.38,3.69-12.15,9.19a28.91,28.91,0,0,0-2.71,8.71A2.52,2.52,0,0,1,1487.89,646.66Z"/><path class="cls-3" d="M1152.15,783.38h-72.7a2.5,2.5,0,0,1-2.24-1.39L947,521.88a2.52,2.52,0,0,1-.21-1.62l14.33-71.58a1.58,1.58,0,0,1,.09-.31c5.47-16.27-1.54-32.41-10.92-41.19-7.72-7.22-16.95-9.65-24.74-6.53L861,439.09c-3.13,3.27-3.45,15.1,2.13,24.12,3.67,5.93,10.71,12,23.42,7.23L907,460.81a2.51,2.51,0,0,1,3.42,3.12c-.1.26-9.52,26.67-4.1,47.26a2.5,2.5,0,1,1-4.84,1.28c-4.31-16.39-.13-35.46,2.49-44.7L888.62,475l-.19.08c-12.26,4.64-23,1.27-29.53-9.24-6.4-10.34-6.94-25.2-1.11-30.59a3.25,3.25,0,0,1,.42-.31l64.94-38.68a2.49,2.49,0,0,1,.33-.16c9.69-4,21-1.22,30.23,7.43,10.51,9.85,18.37,28,12.29,46.28L951.86,520.4l129.13,258h71.16a2.5,2.5,0,0,1,0,5Z"/><path class="cls-3" d="M1056.49,952.45c-29.45,0-58.83-17.18-85-49.8A257.57,257.57,0,0,1,940,852L824.2,567.84a19.75,19.75,0,0,1-15.43,2.48c-15.1-3.86-25-24.87-25.85-26.68L770.45,521a.41.41,0,0,1-.05-.09c-11.55-23.33-14-40.26-7.21-50.33,4.76-7.09,12.66-8.67,16.93-9-.71-9.59,1.61-17.46,6.9-23.43,8.34-9.41,21.54-11.17,26.6-11.5,5.38-22.31,24-27.35,32.09-28.48l-31.79-69.64-.06-.14a28,28,0,0,1,51.45-22l47.12,99.48a2.5,2.5,0,1,1-4.51,2.14l-47.13-99.48a23,23,0,0,0-42.29,18l33.22,72.78a2.5,2.5,0,0,1-2.27,3.54h0c-1.06,0-26.13.33-31.34,26.72a2.5,2.5,0,0,1-2.45,2h0c-.4,0-16.21.09-24.89,9.9-4.78,5.41-6.59,12.89-5.38,22.24a2.51,2.51,0,0,1-2.66,2.81c-.1,0-10.39-.6-15.38,6.87-3.89,5.82-5.74,18.4,7.53,45.23l12.49,22.71.09.17c.09.21,9.47,20.64,22.59,24,4.66,1.19,9.19.07,13.83-3.43a2.48,2.48,0,0,1,2.17-.41,2.5,2.5,0,0,1,1.65,1.46L944.57,850a252.75,252.75,0,0,0,30.85,49.59c32.48,40.39,63,48.31,82.82,47.83l93.91,0a2.5,2.5,0,0,1,0,5h0l-93.85,0Z"/><path class="cls-3" d="M825.35,566.55a2.5,2.5,0,0,1-.92-4.83c.19-.08,3.39-1.49,5.06-6.43,2.21-6.54,1.87-19.46-12.29-43.94l-.08-.16-16.77-34.32a2.5,2.5,0,0,1,4.49-2.19l16.74,34.24c12.2,21.11,16.42,37.35,12.54,48.26-2.51,7.09-7.66,9.12-7.88,9.2A2.51,2.51,0,0,1,825.35,566.55Z"/><path class="cls-3" d="M845.37,551.49A19.91,19.91,0,0,1,831.28,546a2.5,2.5,0,0,1,3.43-3.63c9.88,9.34,24.58-.17,24.73-.27a1.74,1.74,0,0,1,.33-.18c.15-.08,4.22-2.11,6.11-8.31,2-6.47,1.82-18.56-10.22-39.37a.41.41,0,0,1,0-.09l-22-42.1a2.5,2.5,0,0,1,4.43-2.32l22,42.05c10.46,18.08,14,32.72,10.58,43.53-2.38,7.49-7.42,10.47-8.53,11A32.46,32.46,0,0,1,845.37,551.49Z"/><path class="cls-3" d="M879,535.76a36.31,36.31,0,0,1-10.92-1.66,2.5,2.5,0,0,1,1.64-4.73h0c.11,0,11.32,3.79,20.48-1.26,5.52-3,9.29-8.71,11.22-16.86a2.5,2.5,0,0,1,4.86,1.16c-2.27,9.59-6.88,16.35-13.7,20.1A28.16,28.16,0,0,1,879,535.76Z"/><path class="cls-3" d="M902.65,508.1a2.5,2.5,0,0,1-2.28-1.46l-15.09-32.86a2.5,2.5,0,1,1,4.54-2.08l15.1,32.86a2.5,2.5,0,0,1-1.23,3.31A2.42,2.42,0,0,1,902.65,508.1Z"/><path class="cls-3" d="M1102.58,827.18a2.51,2.51,0,0,1-2.21-1.33L1077.23,782a2.5,2.5,0,0,1,4.43-2.33l23.13,43.8a2.5,2.5,0,0,1-1,3.38A2.59,2.59,0,0,1,1102.58,827.18Z"/><path class="cls-3" d="M920.86,554a2.5,2.5,0,0,1-.7-4.9c21.46-6.33,26.59-28.68,26.63-28.91a2.5,2.5,0,0,1,4.89,1.07c-.23,1-5.83,25.47-30.11,32.64A2.44,2.44,0,0,1,920.86,554Z"/><path class="cls-3" d="M908,465.58a2.5,2.5,0,0,1-1.38-4.59l25.65-16.93a2.5,2.5,0,0,1,2.76,4.18L909.4,465.16A2.48,2.48,0,0,1,908,465.58Z"/><path class="cls-3" d="M866.53,435.4a2.51,2.51,0,0,1-2.22-1.34l-7.73-14.66a2.5,2.5,0,1,1,4.43-2.33l7.73,14.66a2.51,2.51,0,0,1-1,3.38A2.55,2.55,0,0,1,866.53,435.4Z"/><path class="cls-3" d="M834.73,589.55a2.5,2.5,0,0,1-1.27-4.66L855,572.24a2.5,2.5,0,0,1,2.53,4.31L836,589.2A2.52,2.52,0,0,1,834.73,589.55Z"/><path class="cls-3" d="M1288.68,961.43a2.5,2.5,0,0,1-2.5-2.5V868a2.5,2.5,0,1,1,5,0v90.91A2.5,2.5,0,0,1,1288.68,961.43Z"/><path class="cls-3" d="M1383.6,1029.69a2.5,2.5,0,0,1-1.93-4.08L1476.1,910.7a2.5,2.5,0,1,1,3.86,3.17l-94.43,114.91A2.49,2.49,0,0,1,1383.6,1029.69Z"/><path class="cls-3" d="M1417.35,1029.69a2.42,2.42,0,0,1-1.58-.57,2.49,2.49,0,0,1-.35-3.51l45.09-54.87a2.5,2.5,0,1,1,3.86,3.18l-45.09,54.86A2.49,2.49,0,0,1,1417.35,1029.69Z"/><path class="cls-2" d="M1742.63,1223.07H1443.1s-32.55,23.43-59.1,30.26l-36.22,80c-10.43,21.68-55.18,27.87-55.18-1.14-6.82,27.3-54,38.11-50.63,1.14-16.12,33-71.49,27.68-54.24-7.5l27.51-72.53,22.23-30.11h-57.89c-19.72.06-36-31.51,3.54-47.54l71.55-7.3s47.4-16.91,100.57-25.5l249.16-34.14-29-100.68L1734,958.28l37.6,112.92S1839.9,1219.66,1742.63,1223.07Z"/><path class="cls-3" d="M1260,1359.47a24.91,24.91,0,0,1-4.18-.34c-9.08-1.54-14.8-7.88-16.21-17.47-8.38,10.71-20.77,15.35-30.67,16-10.63.73-19.62-2.77-24-9.37-2.91-4.32-5.17-11.92.5-23.57l27.47-72.41a2.46,2.46,0,0,1,.32-.6l37-50.06a2.5,2.5,0,1,1,4,3l-36.77,49.78-27.38,72.2-.09.21c-3.72,7.58-4,14-.9,18.69,3.37,5,10.87,7.76,19.56,7.17,10.53-.72,24.22-6.5,31.09-20.55a2.5,2.5,0,0,1,4.73,1.32c-1.09,11.84,3.25,19.2,12.24,20.73,14.77,2.52,30.39-10.36,33.47-22.7a2.5,2.5,0,0,1,4.93.61c0,11.14,7.1,15.1,13.06,16.45,15.21,3.47,32.27-5.8,37.37-16.4l36.19-80a2.52,2.52,0,0,1,1.66-1.39c25.79-6.63,57.94-29.63,58.26-29.86a2.56,2.56,0,0,1,1.46-.47h299.53c19.54-.69,33.54-7.59,41.51-20.53,24.91-40.41-14.37-126.94-14.77-127.81a1.86,1.86,0,0,1-.1-.25L1731.65,959a2.5,2.5,0,1,1,4.74-1.58L1774,1070.17c2.35,5.15,40.48,90.13,14.43,132.39-8.91,14.45-24.28,22.16-45.68,22.91H1443.88c-4.82,3.4-33.44,23.14-58.11,29.86L1350,1334.27c-7.2,15-28.63,22.45-43,19.17-7.62-1.74-12.94-6.14-15.4-12.51C1284.89,1352.39,1271.41,1359.47,1260,1359.47Z"/><path class="cls-3" d="M1179.51,1225.61c-10.66,0-20.64-8.38-22.74-19.1-2.62-13.32,6.87-25.76,25.39-33.26a2.34,2.34,0,0,1,.68-.17l71.27-7.27c4.08-1.43,50.07-17.33,100.72-25.51l246.35-33.75L1573,1008.7l-34.42-102.54a2.5,2.5,0,1,1,4.74-1.59l34.44,102.58,0,.11,29,100.68a2.49,2.49,0,0,1-2.06,3.17l-249.15,34.13c-52.3,8.45-99.6,25.22-100.07,25.39a3,3,0,0,1-.59.13l-71.2,7.25c-16.15,6.64-24.18,16.66-22,27.54,1.66,8.45,9.49,15.06,17.84,15.06h58a2.5,2.5,0,0,1,0,5h-58Z"/><path class="cls-3" d="M1657.79,1118l-.32,0-53.41-6.9a2.5,2.5,0,1,1,.64-5l53.41,6.9a2.5,2.5,0,0,1-.32,5Z"/><path class="cls-3" d="M1242,1335.74a2.71,2.71,0,0,1-.68-.09,2.5,2.5,0,0,1-1.72-3.09l18-63.33a2.44,2.44,0,0,1,.28-.64l25-40.2a2.5,2.5,0,0,1,4.25,2.64l-24.85,39.9-17.91,63A2.51,2.51,0,0,1,1242,1335.74Z"/><path class="cls-3" d="M1292.71,1335.74a2.72,2.72,0,0,1-.69-.09,2.51,2.51,0,0,1-1.72-3.09l18-63.33a2.44,2.44,0,0,1,.28-.64l25-40.2a2.5,2.5,0,1,1,4.24,2.64l-24.84,39.9-17.92,63A2.49,2.49,0,0,1,1292.71,1335.74Z"/><path class="cls-3" d="M1443.09,1225.47h-.26a2.5,2.5,0,0,1-2.23-2.75c2.35-22.6-10.41-28.39-10.95-28.62a2.52,2.52,0,0,1-1.32-3.28,2.49,2.49,0,0,1,3.25-1.33c.69.28,16.75,7.26,14,33.75A2.5,2.5,0,0,1,1443.09,1225.47Z"/><path class="cls-3" d="M1567.91,1225.47h-52.33a2.5,2.5,0,0,1-2.39-1.74l-30.72-96.8a2.51,2.51,0,0,1,2-3.22l46.7-7.57a2.51,2.51,0,0,1,2.76,1.65l36.35,104.36a2.49,2.49,0,0,1-2.36,3.32Zm-50.51-5h47l-34.5-99.06-41.77,6.77Z"/><circle class="cls-2" cx="1526.38" cy="1174.58" r="29.8"/><path class="cls-3" d="M1526.38,1206.88a32.3,32.3,0,1,1,32.3-32.3A32.33,32.33,0,0,1,1526.38,1206.88Zm0-59.59a27.3,27.3,0,1,0,27.3,27.29A27.32,27.32,0,0,0,1526.38,1147.29Z"/><polygon class="cls-2" points="1522.97 1157.69 1526.38 1174.58 1512.73 1177.94 1522.97 1157.69"/><path class="cls-3" d="M1512.73,1180.44a2.5,2.5,0,0,1-.6-4.93l11.33-2.78-2.94-14.55a2.5,2.5,0,0,1,4.9-1l3.41,16.9A2.49,2.49,0,0,1,1527,1177l-13.65,3.36A2.46,2.46,0,0,1,1512.73,1180.44Z"/><path class="cls-3" d="M642,1225.61H445.29a2.5,2.5,0,1,1,0-5H642a2.5,2.5,0,0,1,0,5Z"/><path class="cls-3" d="M1908.41,1225.47h-165.8a2.5,2.5,0,0,1,0-5h165.8a2.5,2.5,0,0,1,0,5Z"/><path class="cls-3" d="M615.45,1098.88H532.69a39,39,0,0,1-39-39V213.51a39,39,0,0,1,39-39h88.23a2.5,2.5,0,0,1,0,5H532.69a34,34,0,0,0-34,34v846.4a34,34,0,0,0,34,34h82.76a2.5,2.5,0,0,1,0,5Z"/><path class="cls-3" d="M496.22,914.78H262.63a43.24,43.24,0,0,1-43.19-43.18V758.31a2.5,2.5,0,0,1,5,0V871.6a38.23,38.23,0,0,0,38.19,38.18H496.22a2.5,2.5,0,0,1,0,5Z"/><path class="cls-4" d="M441.39,528.08V726.64a31.69,31.69,0,0,1-31.68,31.67H34.17A31.68,31.68,0,0,1,2.5,726.64V528.08Z"/><path class="cls-2" d="M441.39,478.05v50H2.5v-50a28.19,28.19,0,0,1,28.18-28.19H413.2A28.2,28.2,0,0,1,441.39,478.05Z"/><path class="cls-3" d="M441.39,530.58H2.5a2.5,2.5,0,0,1-2.5-2.5v-50a30.72,30.72,0,0,1,30.68-30.69H413.2a30.73,30.73,0,0,1,30.69,30.69v50A2.5,2.5,0,0,1,441.39,530.58ZM5,525.58H438.89V478.05a25.72,25.72,0,0,0-25.69-25.69H30.68A25.72,25.72,0,0,0,5,478.05Z"/><circle class="cls-2" cx="43.67" cy="490.66" r="13.68"/><path class="cls-3" d="M43.67,506.84a16.18,16.18,0,1,1,16.18-16.18A16.19,16.19,0,0,1,43.67,506.84Zm0-27.36a11.18,11.18,0,1,0,11.18,11.18A11.19,11.19,0,0,0,43.67,479.48Z"/><circle class="cls-2" cx="92.6" cy="490.66" r="13.68"/><path class="cls-3" d="M92.6,506.84a16.18,16.18,0,1,1,16.17-16.18A16.2,16.2,0,0,1,92.6,506.84Zm0-27.36a11.18,11.18,0,1,0,11.17,11.18A11.19,11.19,0,0,0,92.6,479.48Z"/><circle class="cls-2" cx="141.52" cy="490.66" r="13.68"/><path class="cls-3" d="M141.52,506.84a16.18,16.18,0,1,1,16.18-16.18A16.2,16.2,0,0,1,141.52,506.84Zm0-27.36a11.18,11.18,0,1,0,11.18,11.18A11.2,11.2,0,0,0,141.52,479.48Z"/><path class="cls-2" d="M395.7,722.26H48.19A17.71,17.71,0,0,1,30.5,704.57V581.82a17.71,17.71,0,0,1,17.69-17.69H395.7a17.71,17.71,0,0,1,17.69,17.69V704.57A17.71,17.71,0,0,1,395.7,722.26ZM48.19,569.13A12.7,12.7,0,0,0,35.5,581.82V704.57a12.7,12.7,0,0,0,12.69,12.69H395.7a12.7,12.7,0,0,0,12.69-12.69V581.82a12.7,12.7,0,0,0-12.69-12.69Z"/><rect class="cls-2" x="72.09" y="596.47" width="293.56" height="17.07" rx="7.5"/><rect class="cls-2" x="72.09" y="628.18" width="165.37" height="17.07" rx="7.5"/><rect class="cls-2" x="72.09" y="659.88" width="165.37" height="17.07" rx="7.5"/><circle class="cls-2" cx="496.22" cy="327.24" r="30.17"/><circle class="cls-4" cx="492.27" cy="912.28" r="30.17"/><path class="cls-3" d="M1871.44,522.74a2.45,2.45,0,0,1-1.41-.44,2.5,2.5,0,0,1-.7-3.4c.05-.07.25-.39.63-.91,5.31-8,6.62-22,6.63-22.17a2.5,2.5,0,1,1,5,.44,76.52,76.52,0,0,1-2.24,12.12,88.56,88.56,0,0,1,19.51-12,2.5,2.5,0,0,1,2.08,4.55c-17.06,7.82-25,17.39-26.89,20-.19.28-.38.55-.58.82A2.46,2.46,0,0,1,1871.44,522.74Z"/><path class="cls-3" d="M1687.32,539.62a2.47,2.47,0,0,1-2-1.06c-5.88-8.29-18.25-11.9-18.37-11.93a2.5,2.5,0,0,1,1.37-4.81,50.14,50.14,0,0,1,12,5.56c-2.88-7.09-6.19-16.35-7.24-23.66a2.5,2.5,0,0,1,5-.71c1.82,12.74,11.44,32.82,11.54,33a2.51,2.51,0,0,1-1,3.24A2.56,2.56,0,0,1,1687.32,539.62Z"/><path class="cls-3" d="M1795.75,870.52a2.5,2.5,0,0,1-2.49-2.4c0-.52-2-52.65,1.7-113.84,5-82.38,17.53-141.07,37.15-174.44a2.5,2.5,0,1,1,4.31,2.54c-45.92,78.1-38.25,283.47-38.17,285.54a2.49,2.49,0,0,1-2.39,2.59Z"/><path class="cls-2" d="M1818.08,920.15c6.89-43.23,39.65-52.13,39.65-52.13H1732.1s32.76,8.9,39.65,52.13-69,175.77-17.29,303h80.91C1887.09,1095.92,1811.18,963.39,1818.08,920.15Z"/><path class="cls-3" d="M1835.37,1225.61h-80.91a2.49,2.49,0,0,1-2.31-1.56c-15.77-38.77-21.3-81.14-16.9-129.53,3.74-41.12,14.07-79.27,22.37-109.93,7.69-28.42,13.77-50.86,11.66-64-6.56-41.17-37.53-50-37.84-50.12a2.5,2.5,0,0,1,.66-4.91h125.63a2.5,2.5,0,0,1,.66,4.91,48.68,48.68,0,0,0-16.48,9.52c-11.43,9.72-18.62,23.38-21.36,40.6-2.11,13.18,4,35.62,11.66,64,8.3,30.66,18.63,68.81,22.37,109.93,4.4,48.39-1.13,90.76-16.89,129.53A2.51,2.51,0,0,1,1835.37,1225.61Zm-79.22-5h77.53c15-37.6,20.19-78.72,15.92-125.64-3.7-40.68-14-78.6-22.22-109.08-7.85-29-14-51.89-11.77-66.13h0c4.58-28.7,20-42.78,30.73-49.24H1743.49c10.7,6.46,26.15,20.54,30.73,49.24,2.27,14.24-3.92,37.14-11.77,66.13-8.25,30.48-18.52,68.4-22.22,109.08C1736,1141.89,1741.17,1183,1756.15,1220.61Z"/><path class="cls-2" d="M1773.4,868s-19.72-128.82-81.15-154.58c0,0,78.5,13.3,102.67,154.58Z"/><path class="cls-3" d="M1794.92,870.52H1773.4a2.5,2.5,0,0,1-2.47-2.12c-.19-1.28-20.21-127.74-79.65-152.66a2.5,2.5,0,0,1,1.38-4.77c.83.14,20.63,3.7,43.56,24.94,38,35.17,54.2,91,61.16,131.68a2.5,2.5,0,0,1-2.46,2.93Zm-19.4-5h16.42c-7.09-39.62-23.09-92.55-59.12-125.94a117.76,117.76,0,0,0-16.48-12.81c16.15,15.55,30.18,39.9,41.88,72.78A424,424,0,0,1,1775.52,865.52Z"/><path class="cls-2" d="M1794.92,868s-.76-162.14,62.81-186.41c0,0-38.06,38.32-42.61,186.41Z"/><path class="cls-3" d="M1815.12,870.52h-20.2a2.5,2.5,0,0,1-2.5-2.49,533.17,533.17,0,0,1,7.6-84.55c10.46-58.75,29.58-93.81,56.82-104.21a2.5,2.5,0,0,1,2.67,4.1c-.09.09-9.45,9.84-19.24,37.36-16.39,46.07-21.37,105.56-22.65,147.36A2.51,2.51,0,0,1,1815.12,870.52Zm-17.69-5h15.27c3.67-109.73,25.55-158.69,36.73-176.78C1801.17,721.12,1797.68,846.24,1797.43,865.52Z"/><path class="cls-2" d="M1815.12,868s15.17-117.39,69.78-127.25c0,0-75.3-4.91-90,127.25Z"/><path class="cls-3" d="M1815.12,870.52h-20.2a2.51,2.51,0,0,1-2.49-2.78c4.24-38.18,16.62-89.1,51.5-114.91,21.15-15.66,40.32-14.61,41.13-14.55a2.5,2.5,0,0,1,.29,5c-52.19,9.42-67.6,123.95-67.75,125.11A2.5,2.5,0,0,1,1815.12,870.52Zm-17.4-5H1813a346.69,346.69,0,0,1,14.22-58.25c10.09-29.06,22.56-49.14,37.24-60a73.14,73.14,0,0,0-17.8,9.83C1814.22,781.27,1802.12,828.82,1797.72,865.52Z"/><path class="cls-3" d="M1794.92,870.52a2.5,2.5,0,0,1-2.5-2.5,780.18,780.18,0,0,0-9.13-106c-8.29-53.49-26-127.23-63.43-174.76a2.5,2.5,0,1,1,3.93-3.1c38.08,48.41,56.07,123.06,64.45,177.17A783.93,783.93,0,0,1,1797.42,868,2.5,2.5,0,0,1,1794.92,870.52Z"/><ellipse class="cls-2" cx="1709.53" cy="568.69" rx="14.79" ry="48.92" transform="translate(-25.62 1053.6) rotate(-34.01)"/><ellipse class="cls-2" cx="1850.98" cy="555.27" rx="48.92" ry="14.79" transform="translate(444.61 1880.63) rotate(-60)"/><path class="cls-3" d="M1818.18,937.35h-46.53a2.5,2.5,0,0,1,0-5h46.53a2.5,2.5,0,0,1,0,5Z"/><path class="cls-3" d="M1834.26,1002.05h-78.07a2.5,2.5,0,0,1,0-5h78.07a2.5,2.5,0,0,1,0,5Z"/><path class="cls-3" d="M583.15,698.7H496.22a2.5,2.5,0,0,1,0-5h86.93a2.5,2.5,0,0,1,0,5Z"/><path class="cls-3" d="M1146.21,243.43a2.5,2.5,0,0,1-.66-.09l-142-38.68a2.5,2.5,0,0,1,1.32-4.83l142,38.69a2.5,2.5,0,0,1-.66,4.91Z"/><path class="cls-3" d="M1041.46,316.24a2.46,2.46,0,0,1-1.32-.38l-54.61-34.13a2.5,2.5,0,1,1,2.65-4.24l54.61,34.13a2.5,2.5,0,0,1-1.33,4.62Z"/><path class="cls-3" d="M1079.44,339a2.44,2.44,0,0,1-1.29-.37l-15.23-9.25a2.5,2.5,0,1,1,2.6-4.27l15.22,9.25a2.5,2.5,0,0,1-1.3,4.64Z"/><path class="cls-3" d="M604.41,460.73a2.41,2.41,0,0,1-1.13-.27,2.5,2.5,0,0,1-1.1-3.36l62.27-122.87a2.5,2.5,0,0,1,4.46,2.26L606.64,459.36A2.5,2.5,0,0,1,604.41,460.73Z"/><path class="cls-3" d="M686.92,412.51a2.43,2.43,0,0,1-.94-.19,2.5,2.5,0,0,1-1.37-3.26l21.57-52.6a2.5,2.5,0,0,1,4.63,1.9L689.24,411A2.52,2.52,0,0,1,686.92,412.51Z"/><path class="cls-3" d="M1014.16,147.86a2.5,2.5,0,0,1-.34-5L1132.15,127a2.5,2.5,0,0,1,.67,5l-118.33,15.93Z"/><path class="cls-3" d="M792.52,1425a2.5,2.5,0,0,1-1.64-4.38c17-14.85,25.2-29.61,24.44-43.88-.76-14.48-10.83-28.64-29.92-42.08-19.28-13.56-31.43-30.82-34.41-48.1a117.29,117.29,0,0,1-28-3.68c-16.81-4.43-30.87-12.56-40.67-23.51-11.8-13.18-17.56-30.22-17.13-50.64.74-35.3,16-62.64,42.85-77,44.6-23.78,115-9.92,188.22,37.07,20.14,12.92,40.41,19.47,60.29,19.47h1.38a88.47,88.47,0,0,0,50.27-16.8c16-11.47,29-28.37,36.49-47.6,7.58-19.42,9.21-40.39,4.61-59.05a2.5,2.5,0,0,1,4.86-1.19c4.84,19.64,3.14,41.68-4.81,62.06-7.85,20.12-21.43,37.82-38.24,49.85-34.14,24.43-77,23.51-117.55-2.52-71.71-46-140.18-59.78-183.17-36.87-25.59,13.64-39.49,38.77-40.2,72.66-1,47.56,33.45,63.78,54.07,69.22a113.13,113.13,0,0,0,26.12,3.57,46.54,46.54,0,0,1,.26-9.22c1.56-12,8.13-21.51,17.17-24.86,8.47-3.15,17.83-.66,26.37,7,8,7.19,6.42,13.46,4.75,16.55-4.93,9.15-22.57,14.81-42.76,15.43,2.24,11.69,9.73,28.33,32.09,44.06,20.41,14.37,31.19,29.81,32,45.91.84,15.87-7.95,32-26.14,47.9A2.46,2.46,0,0,1,792.52,1425Zm-17.39-173.77a15.85,15.85,0,0,0-5.57,1c-7.29,2.7-12.64,10.68-13.95,20.82a40.08,40.08,0,0,0-.11,8.57,102.28,102.28,0,0,0,13.78-1.24c12.82-2.08,22.5-6.55,25.26-11.67.64-1.19,2.6-4.82-3.69-10.46C785.69,1253.61,780.27,1251.22,775.13,1251.22Z"/><path class="cls-3" d="M1581.23,418.44l-.42,0a2.5,2.5,0,0,1-2-2.89c4.72-27.62-15.67-54.07-38.26-65.93-25-13.11-55.14-14.25-81.33-13.63a642.65,642.65,0,0,0-70.67,5.56l-7,1c-20.83,2.91-42.38,5.92-63,.59a66.45,66.45,0,0,1-18.55-8.06,62.74,62.74,0,0,1-18.15,9.93c-14.57,5-28.82,3.56-40.13-4.05-11.55-7.76-19.83-21.61-23.34-39-3.74-18.55-1.48-38.89,6.38-57.26s21-34,37-44.16a2.5,2.5,0,1,1,2.67,4.22c-15.15,9.58-27.6,24.46-35.06,41.91s-9.62,36.73-6.08,54.3c3.25,16.09,10.78,28.82,21.23,35.84,10,6.71,22.67,7.95,35.72,3.47A57.28,57.28,0,0,0,1295.6,332c-12.73-9.47-22-23.55-21.09-40a32.5,32.5,0,0,1,12.72-23.48c5.51-4.05,11.82-5.44,17.79-3.93a21.12,21.12,0,0,1,13.41,10.76c4.65,8.47,5.4,20.82,1.89,31.46a59.52,59.52,0,0,1-16.38,24.72,61.83,61.83,0,0,0,15.8,6.61c19.7,5.08,40.74,2.14,61.09-.7l7-1a650.39,650.39,0,0,1,71.22-5.6c47.82-1.12,69.18,6.55,83.77,14.21a83.18,83.18,0,0,1,31.91,29.67c8.21,13.42,11.31,27.78,9,41.53A2.5,2.5,0,0,1,1581.23,418.44Zm-281-149.36a17.06,17.06,0,0,0-10,3.56,27.31,27.31,0,0,0-10.69,19.73c-.85,15,8.06,27.9,20.11,36.44a54.74,54.74,0,0,0,16-23.48c3-9.23,2.43-20.28-1.52-27.49a16,16,0,0,0-10.26-8.31A14.29,14.29,0,0,0,1300.2,269.08Z"/><path class="cls-3" d="M1209.12,1223.11H666.67L596.84,889.34a23.18,23.18,0,0,1,22.69-27.92h495.1a23.18,23.18,0,0,1,22.69,18.43Z"/><path class="cls-3" d="M1209.12,1225.61H666.67a2.5,2.5,0,0,1-2.45-2L594.4,889.85a25.66,25.66,0,0,1,25.13-30.93h495.1a25.79,25.79,0,0,1,25.14,20.42l71.8,343.26a2.51,2.51,0,0,1-2.45,3Zm-540.42-5h537.35l-71.18-340.25a20.76,20.76,0,0,0-20.24-16.44H619.53a20.68,20.68,0,0,0-20.24,24.91Z"/><path class="cls-2" d="M1184.42,1223.11H642L572.14,889.34a23.18,23.18,0,0,1,22.69-27.92h495.09a23.17,23.17,0,0,1,22.69,18.43Z"/><path class="cls-3" d="M1184.42,1225.61H642a2.51,2.51,0,0,1-2.45-2L569.69,889.85a25.68,25.68,0,0,1,25.14-30.93h495.09a25.78,25.78,0,0,1,25.14,20.42l71.81,343.26a2.51,2.51,0,0,1-2.45,3Zm-540.43-5h537.35l-71.17-340.25a20.77,20.77,0,0,0-20.25-16.44H594.83a20.68,20.68,0,0,0-20.24,24.91Z"/><path class="cls-4" d="M605,917.6l56.49,260.49a23.8,23.8,0,0,0,23.26,18.76h437.68a23.81,23.81,0,0,0,23.29-28.76l-55.61-261.56a23.8,23.8,0,0,0-23.34-18.86l-438.56,1.07A23.81,23.81,0,0,0,605,917.6Z"/><circle class="cls-2" cx="868.48" cy="1052.16" r="44.21"/><path class="cls-3" d="M868.48,1098.88a46.72,46.72,0,1,1,46.72-46.72A46.77,46.77,0,0,1,868.48,1098.88Zm0-88.43a41.72,41.72,0,1,0,41.72,41.71A41.76,41.76,0,0,0,868.48,1010.45Z"/><path class="cls-3" d="M860.66,1011.09a2.5,2.5,0,0,1-2.49-2.29c-2.15-25.31-16.35-30-16.49-30a2.5,2.5,0,1,1,1.48-4.77c.71.22,17.56,5.75,20,34.39a2.5,2.5,0,0,1-2.28,2.7Z"/><path class="cls-3" d="M862.38,1007.71H861a2.5,2.5,0,0,1-2.44-2.54c0-.62.39-15.07,11.38-24.88,7.61-6.81,18.31-9.61,31.79-8.32a2.49,2.49,0,0,1,2.24,2.76,39.53,39.53,0,0,1-6.8,16.84C891.91,999,881.66,1007.71,862.38,1007.71Zm33.18-31.06c-9.35,0-16.84,2.47-22.31,7.36-6.84,6.1-8.87,14.52-9.46,18.69,26.21-.63,33.06-19,34.71-26C897.5,976.68,896.52,976.65,895.56,976.65Z"/><path class="cls-3" d="M282.69,426.35a12.1,12.1,0,0,1-8.58-3.62L232.38,381a7.19,7.19,0,0,0-5.12-2.12H67.09a12.25,12.25,0,0,1-12.24-12.24V242.14A12.25,12.25,0,0,1,67.09,229.9H317a12.25,12.25,0,0,1,12.24,12.24V366.63A12.25,12.25,0,0,1,317,378.87H302.25a7.25,7.25,0,0,0-7.24,7.24v28a12,12,0,0,1-7.55,11.31A12.44,12.44,0,0,1,282.69,426.35ZM67.09,234.9a7.25,7.25,0,0,0-7.24,7.24V366.63a7.25,7.25,0,0,0,7.24,7.24H227.26a12.12,12.12,0,0,1,8.65,3.59l41.74,41.73A7.24,7.24,0,0,0,290,414.07v-28a12.25,12.25,0,0,1,12.24-12.24H317a7.25,7.25,0,0,0,7.24-7.24V242.14A7.25,7.25,0,0,0,317,234.9Z"/><circle class="cls-2" cx="130.05" cy="304.39" r="17.33"/><circle class="cls-2" cx="192.04" cy="304.39" r="17.33"/><circle class="cls-2" cx="254.03" cy="304.39" r="17.33"/></g></g></svg>