<svg xmlns="http://www.w3.org/2000/svg" viewBox="0 0 641.63 188.65"><defs><style>.cls-1{fill:#fff;}</style></defs><g id="Laag_2" data-name="Laag 2"><g id="Laag_1-2" data-name="Laag 1"><path class="cls-1" d="M4.66,31.11H114a36.45,36.45,0,0,1,36.45,36.45v0a0,0,0,0,1,0,0H41.11A36.45,36.45,0,0,1,4.66,31.11v0a0,0,0,0,1,0,0Z" transform="translate(-12.17 69.3) rotate(-45)"/><path class="cls-1" d="M-8.46,121.08H100.89a36.45,36.45,0,0,1,36.45,36.45v0a0,0,0,0,1,0,0H28A36.45,36.45,0,0,1-8.46,121.08v0a0,0,0,0,1,0,0Z" transform="translate(-79.63 86.37) rotate(-45)"/><path class="cls-1" d="M164.14,155.09,179.71,150a4.13,4.13,0,0,1,.32,1.22c.16.81.45,1.88.85,3.2a37.25,37.25,0,0,0,1.7,4.38,19.63,19.63,0,0,0,3.21,4.78,26.72,26.72,0,0,0,4.94,4.34q6.32,4.46,15.72,4.45t13.82-4.62a15.33,15.33,0,0,0,4.42-11,33.44,33.44,0,0,0-1.3-10.29,15.67,15.67,0,0,0-4.53-6.85q-5.45-4.86-18.81-8.76-23.58-6.88-30.31-21.31a41.9,41.9,0,0,1-3.49-17.76q0-8.58,6.08-16.77Q183,61.47,202.48,61.47q15.48,0,25.37,9.32a40.32,40.32,0,0,1,10.54,16.54l1.54,4.29c.49,1.3.81,2.14,1,2.52l-15.8,5.59q-5.35-17-16.7-21a18.06,18.06,0,0,0-5.92-1q-16.86,0-16.86,17.35,0,7.94,4.7,12.16A27.32,27.32,0,0,0,200.54,113l3.89,1.3c2.21.76,3.43,1.16,3.65,1.21l3.56,1.22q13.86,4.86,18.73,8.59,7.13,5.52,9.32,10.13a47.37,47.37,0,0,1,4.37,20,34.43,34.43,0,0,1-4.7,16.78q-6.31,11.43-20,15a45.34,45.34,0,0,1-11.51,1.38,57.37,57.37,0,0,1-11.71-1.14,39.77,39.77,0,0,1-9.44-3.08,44.57,44.57,0,0,1-7.3-4.46,31.67,31.67,0,0,1-5.59-5.31,50.61,50.61,0,0,1-4-5.59,36.23,36.23,0,0,1-2.72-5.31c-.67-1.67-1.23-3.16-1.66-4.46s-.74-2.32-.93-3.08S164.2,155.09,164.14,155.09Z"/><path class="cls-1" d="M278.56,115.7V101h12.72V69.82h17.35V101h17.91V115.7H308.63v45.87c0,4.6.82,7.74,2.47,9.45s4.42,2.55,8.31,2.55a34.55,34.55,0,0,0,4.74-.33,14.18,14.18,0,0,0,2.39-.4v12.24a39.33,39.33,0,0,1-6.77,2.59,25.53,25.53,0,0,1-5.83.57c-2.3,0-4,0-5.11-.08a27.61,27.61,0,0,1-4.05-.57,17,17,0,0,1-4.13-1.34,16.38,16.38,0,0,1-3.61-2.47,13.39,13.39,0,0,1-3.08-3.89q-2.67-5.19-2.68-13.45V115.7Z"/><path class="cls-1" d="M361,186.54V101h17.34v11.75c.22-.27.7-1,1.46-2.11l2-2.92q6-8.18,19.77-8.18a17.88,17.88,0,0,1,2.92.24v14.51q-14.75.24-21.23,8.18a29.93,29.93,0,0,0-4.87,9.16v54.88Z"/><path class="cls-1" d="M439,93.57V73.87h19.69v19.7Zm1.21,93V101h17.35v85.51Z"/><path class="cls-1" d="M493.17,144.39q0-25.45,11.1-36.23,8.76-8.59,24.52-8.59t24.68,13.29a30.27,30.27,0,0,1,4.06,8l-14.68,6.49a14.83,14.83,0,0,0-5.43-10.54,12.41,12.41,0,0,0-8-2.59q-18.89,0-18.89,29.42,0,14.51,5,22.09t14.43,7.58a13.49,13.49,0,0,0,10.78-4.87,27.78,27.78,0,0,0,5.18-9l13.3,5.83A31.68,31.68,0,0,1,551.2,179q-8.51,9-21.8,9Q493.16,188,493.17,144.39Z"/><path class="cls-1" d="M593.64,115.7V101h12.73V69.82h17.34V101h17.92V115.7H623.71v45.87c0,4.6.83,7.74,2.48,9.45s4.41,2.55,8.3,2.55a34.55,34.55,0,0,0,4.74-.33,14.2,14.2,0,0,0,2.4-.4v12.24a39.65,39.65,0,0,1-6.77,2.59,25.62,25.62,0,0,1-5.84.57c-2.3,0-4,0-5.1-.08a27.9,27.9,0,0,1-4.06-.57,17,17,0,0,1-4.13-1.34,16.62,16.62,0,0,1-3.61-2.47,13.56,13.56,0,0,1-3.08-3.89q-2.67-5.19-2.67-13.45V115.7Z"/></g></g></svg>