<svg xmlns="http://www.w3.org/2000/svg" viewBox="0 0 149.51 225.34"><defs><style>.cls-1,.cls-2{fill:#fff;}.cls-2{font-size:12px;font-family:BeckmanFree, Beckman;letter-spacing:1.5em;}</style></defs><g id="Laag_2" data-name="Laag 2"><g id="Laag_1-2" data-name="Laag 1"><path class="cls-1" d="M4.66,31.11H114a36.45,36.45,0,0,1,36.45,36.45v0a0,0,0,0,1,0,0H41.11A36.45,36.45,0,0,1,4.66,31.11v0a0,0,0,0,1,0,0Z" transform="translate(-12.17 69.3) rotate(-45)"/><path class="cls-1" d="M-8.46,121.08H100.89a36.45,36.45,0,0,1,36.45,36.45v0a0,0,0,0,1,0,0H28A36.45,36.45,0,0,1-8.46,121.08v0A0,0,0,0,1-8.46,121.08Z" transform="translate(-79.63 86.37) rotate(-45)"/><text class="cls-2" transform="translate(4.48 222.82)">STRICT</text></g></g></svg>