<svg xmlns="http://www.w3.org/2000/svg" viewBox="0 0 371.37 442.02"><defs><style>.cls-1{fill:#fff;}.cls-2{fill:none;stroke:#fff;stroke-miterlimit:10;stroke-width:10px;}</style></defs><g id="Laag_2" data-name="Laag 2"><g id="Laag_1-2" data-name="Laag 1"><path class="cls-1" d="M251.09,0Q289,23.63,326.86,47.26c3.54,2.21,3.67,5,.44,7.68-6.62,5.52-13.24,11-19.94,16.45a6.27,6.27,0,0,0-2.49,4.35C303,89.84,300.92,103.91,299,118a7.11,7.11,0,0,1-3.27,5.29q-44.87,31.1-89.62,62.32c-2.63,1.83-4.73,1.8-7.3.1-4.69-3.1-9.49-6-14.29-9a5,5,0,0,1-2.64-5.64q8.47-54.41,16.79-108.84a6.67,6.67,0,0,1,3.13-4.84q18-12.09,36-24.33A5.87,5.87,0,0,0,239.91,30c2-7.94,3.87-15.93,5.86-23.89A55.61,55.61,0,0,1,247.66.79Zm-51,176.6c1.41,1.64,2.6,1.48,4.31.28Q246.62,147.35,289,118a4.72,4.72,0,0,0,2.25-3.57q2.67-19.64,5.53-39.24a2.77,2.77,0,0,0-1.43-3.25Q270.11,56.29,245,40.48a2.76,2.76,0,0,0-3.55.06c-11,7.5-22,14.9-33,22.45a5.56,5.56,0,0,0-2,3.34c-5.32,33.89-10.53,67.8-15.83,101.69-.34,2.16-.14,3.57,1.73,3.9l38.86-62.23a23.78,23.78,0,1,1,38.43-8.55c-4.86,12.11-18.19,18.08-30.88,13.5ZM318.05,52,253,11.33c-1.67,6.93-3.39,14-5,20.85l53.59,33.49Zm-67,55.56A15.64,15.64,0,0,0,262.8,89,15.82,15.82,0,0,0,244,77.21a15.61,15.61,0,0,0-11.61,18.62A15.43,15.43,0,0,0,251.08,107.54Z"/><path class="cls-1" d="M349.07,130.6H301v12h46.59c8.54,0,11.81,3.24,11.81,11.69q0,93.95,0,187.89v4H12V154.25c0-8.45,3.27-11.69,11.8-11.69H167.59v-12H22.26C8.74,130.6,0,139.27,0,152.72V372.05c0,13.24,8.78,22.05,22,22.05H142.33c-1.05,5.23-2.18,10.07-2.94,15-.37,2.34-1.22,3.11-3.6,3.06-7.11-.16-14.22-.09-21.33,0-4.48,0-6.59,2.16-6.63,6.67,0,5.49,0,11,0,16.47,0,4.67,2.16,6.77,6.92,6.77H256.63c4.75,0,6.87-2.11,6.91-6.79,0-5.36,0-10.73,0-16.09,0-5-2.07-7-7-7-7,0-14,.08-21-.1-1.14,0-3-1-3.25-1.86-1.26-5.18-2.14-10.45-3.22-16h120c13.7,0,22.31-8.67,22.31-22.45q0-109.3,0-218.59C371.36,139.25,362.77,130.6,349.07,130.6ZM251.41,424.25v5.54H120v-5.54ZM151.26,411.7c1-5.13,1.87-10.16,3.07-15.09a3.93,3.93,0,0,1,2.78-2.4q28.63-.21,57.26,0c.93,0,2.43,1.47,2.68,2.5,1.19,4.82,2,9.73,3.07,15Zm208.08-38.83c-.21,5.48-3.82,8.93-9.32,9.24-1.12.07-2.25,0-3.37,0H24.73c-9.83,0-12.76-2.9-12.76-12.62V358.44H359.38C359.38,363.42,359.52,368.16,359.34,372.87Z"/><path class="cls-2" d="M56.47,219.64c31-5.5,70.52-6.74,99.82,15.91,28.69,22.17,28.58,52.59,53,61.84C226,303.72,254,300,302.94,255"/></g></g></svg>